<svg xmlns="http://www.w3.org/2000/svg" enable-background="new 0 0 66 66" viewBox="0 0 66 66" id="Lightsaber">
  <path d="M35.81561 60.89325c-1.73895.43731-3.70525.47963-5.66833 0-.04004-.01245-.08826-.01868-.1283-.03113-.36084 1.10742-.72144 2.21484-1.08228 3.32227 2.64563.68433 5.45166.68433 8.0896 0-.36084-1.10742-.71362-2.21484-1.07446-3.32227C35.90387 60.87457 35.86371 60.88702 35.81561 60.89325zM33.14008 59.23236c1.47876-.01978 2.39307-.34375 2.66992-.39996v-8.68005h-5.66003v8.65002c.10071.02155 1.03796.40717 2.68005.42999H33.14008zM47.73993 43.97235H44.19v2.98004h3.54993c.80005 0 1.45007-.64001 1.45007-1.44v-.09003C49.19 44.62238 48.53998 43.97235 47.73993 43.97235zM36.81 42.77234h-1.64001V3.43237c0-1.17999-.95007-2.13-2.13-2.13h-.13c-1.17004 0-2.13.95001-2.13 2.13v39.33997h-1.57996c-.54414 0-.89001.44228-.89001.88v3.61005c0 .44601.35496.88995.89001.88995H36.81c.46166 0 .89001-.35849.89001-.88995v-3.61005C37.70001 43.1386 37.29786 42.77234 36.81 42.77234zM39.65997 47.54236H42.19V43.3924h-2.54004C39.68719 43.54107 39.67506 47.40672 39.65997 47.54236zM16.81 45.41235v.09003c0 .79999.6499 1.44 1.44995 1.44H21.81v-2.97003h-3.55005C17.4599 43.97235 16.81 44.61237 16.81 45.41235zM26.28998 43.38239H23.81v4.14996h2.47998C26.27139 47.36523 26.27427 43.52354 26.28998 43.38239z" fill="#34a853" class="color000000 svgShape"></path>
</svg>
